<svg width="17" height="17" viewBox="0 0 17 17" fill="none" xmlns="http://www.w3.org/2000/svg">
<g clip-path="url(#clip0_931_2193)">
<path d="M11.9017 2.2793H5.23503C3.39408 2.2793 1.90169 3.77168 1.90169 5.61263V12.2793C1.90169 14.1202 3.39408 15.6126 5.23503 15.6126H11.9017C13.7426 15.6126 15.235 14.1202 15.235 12.2793V5.61263C15.235 3.77168 13.7426 2.2793 11.9017 2.2793Z" stroke="white" stroke-linecap="round" stroke-linejoin="round"/>
<path d="M11.235 8.52551C11.3173 9.08034 11.2225 9.64699 10.9642 10.1449C10.7059 10.6427 10.2971 11.0465 9.79611 11.2986C9.2951 11.5508 8.72732 11.6386 8.17355 11.5495C7.61978 11.4604 7.1082 11.1989 6.71159 10.8023C6.31497 10.4057 6.05351 9.8941 5.9644 9.34032C5.8753 8.78655 5.96307 8.21878 6.21524 7.71776C6.46742 7.21675 6.87115 6.80801 7.36902 6.54967C7.86688 6.29134 8.43353 6.19657 8.98836 6.27885C9.55431 6.36277 10.0783 6.62649 10.4828 7.03105C10.8874 7.43561 11.1511 7.95957 11.235 8.52551Z" stroke="white" stroke-linecap="round" stroke-linejoin="round"/>
<path d="M12.235 5.2793H12.2417" stroke="white" stroke-linecap="round" stroke-linejoin="round"/>
</g>
<defs>
<clipPath id="clip0_931_2193">
<rect width="16" height="16" fill="white" transform="translate(0.568359 0.945312)"/>
</clipPath>
</defs>
</svg>
