<svg width="16" height="16" viewBox="0 0 16 16" fill="none" xmlns="http://www.w3.org/2000/svg">
<path d="M10.6667 5.33398C11.7275 5.33398 12.7449 5.75541 13.4951 6.50556C14.2452 7.2557 14.6667 8.27312 14.6667 9.33398V14.0007H12V9.33398C12 8.98036 11.8595 8.64122 11.6095 8.39118C11.3594 8.14113 11.0203 8.00065 10.6667 8.00065C10.313 8.00065 9.9739 8.14113 9.72386 8.39118C9.47381 8.64122 9.33333 8.98036 9.33333 9.33398V14.0007H6.66666V9.33398C6.66666 8.27312 7.08809 7.2557 7.83824 6.50556C8.58838 5.75541 9.6058 5.33398 10.6667 5.33398V5.33398Z" stroke="white" stroke-linecap="round" stroke-linejoin="round"/>
<path d="M4 6H1.33334V14H4V6Z" stroke="white" stroke-linecap="round" stroke-linejoin="round"/>
<path d="M2.66667 4.00065C3.40305 4.00065 4 3.4037 4 2.66732C4 1.93094 3.40305 1.33398 2.66667 1.33398C1.93029 1.33398 1.33334 1.93094 1.33334 2.66732C1.33334 3.4037 1.93029 4.00065 2.66667 4.00065Z" stroke="white" stroke-linecap="round" stroke-linejoin="round"/>
</svg>
