<svg width="16" height="16" viewBox="0 0 16 16" fill="none" xmlns="http://www.w3.org/2000/svg">
<path d="M15.3333 2.00084C14.6949 2.45116 13.9881 2.79558 13.24 3.02084C12.8385 2.55918 12.3049 2.23197 11.7114 2.08346C11.1178 1.93495 10.493 1.97231 9.92139 2.19048C9.34978 2.40865 8.85896 2.79711 8.51532 3.30332C8.17168 3.80953 7.9918 4.40907 8 5.02084V5.68751C6.82842 5.71789 5.66752 5.45805 4.62067 4.93114C3.57383 4.40423 2.67355 3.6266 2 2.66751C2 2.66751 -0.666665 8.66751 5.33333 11.3342C3.96035 12.2662 2.32477 12.7335 0.666668 12.6675C6.66667 16.0008 14 12.6675 14 5.00084C14 4.81418 13.98 4.62751 13.9467 4.44751C14.6271 3.77651 15.1072 2.92932 15.3333 2.00084V2.00084Z" stroke="white" stroke-linecap="round" stroke-linejoin="round"/>
</svg>
