<svg width="588" height="610" viewBox="0 0 588 610" fill="none" xmlns="http://www.w3.org/2000/svg">
<g clip-path="url(#clip0_2406_6901)">
<g opacity="0.4">
<rect x="-26.6842" y="40" width="35.2105" height="35.2105" fill="#020D2C" stroke="#3A4F8B" stroke-width="2"/>
<rect x="6.52643" y="40" width="35.2105" height="35.2105" fill="#020D2C" stroke="#3A4F8B" stroke-width="2"/>
<rect x="39.7369" y="40" width="35.2105" height="35.2105" fill="#020D2C" stroke="#3A4F8B" stroke-width="2"/>
<rect x="72.9473" y="40" width="35.2105" height="35.2105" fill="#020D2C" stroke="#3A4F8B" stroke-width="2"/>
<rect x="106.158" y="40" width="35.2105" height="35.2105" fill="#020D2C" stroke="#3A4F8B" stroke-width="2"/>
<rect x="139.369" y="40" width="35.2105" height="35.2105" fill="#020D2C" stroke="#3A4F8B" stroke-width="2"/>
<rect x="172.579" y="40" width="35.2105" height="35.2105" fill="#020D2C" stroke="#3A4F8B" stroke-width="2"/>
<rect x="205.79" y="40" width="35.2105" height="35.2105" fill="#020D2C" stroke="#3A4F8B" stroke-width="2"/>
<rect x="239" y="40" width="35.2105" height="35.2105" fill="#020D2C" stroke="#3A4F8B" stroke-width="2"/>
<rect x="272.21" y="40" width="35.2105" height="35.2105" fill="#020D2C" stroke="#3A4F8B" stroke-width="2"/>
<rect x="305.421" y="40" width="35.2105" height="35.2105" fill="#020D2C" stroke="#3A4F8B" stroke-width="2"/>
<rect x="338.632" y="40" width="35.2105" height="35.2105" fill="#020D2C" stroke="#3A4F8B" stroke-width="2"/>
<rect x="371.842" y="40" width="35.2105" height="35.2105" fill="#020D2C" stroke="#3A4F8B" stroke-width="2"/>
<rect x="405.053" y="40" width="35.2105" height="35.2105" fill="#020D2C" stroke="#3A4F8B" stroke-width="2"/>
<rect x="438.263" y="40" width="35.2105" height="35.2105" fill="#020D2C" stroke="#3A4F8B" stroke-width="2"/>
<rect x="471.474" y="40" width="35.2105" height="35.2105" fill="#020D2C" stroke="#3A4F8B" stroke-width="2"/>
<rect x="504.684" y="40" width="35.2105" height="35.2105" fill="#020D2C" stroke="#3A4F8B" stroke-width="2"/>
<rect x="537.895" y="40" width="35.2105" height="35.2105" fill="#020D2C" stroke="#3A4F8B" stroke-width="2"/>
<rect x="571.105" y="40" width="35.2105" height="35.2105" fill="#020D2C" stroke="#3A4F8B" stroke-width="2"/>
<rect x="-26.6841" y="73.2109" width="35.2105" height="35.2105" fill="#020D2C" stroke="#3A4F8B" stroke-width="2"/>
<rect x="6.52637" y="73.2109" width="35.2105" height="35.2105" fill="#020D2C" stroke="#3A4F8B" stroke-width="2"/>
<rect x="39.7369" y="73.2109" width="35.2105" height="35.2105" fill="#020D2C" stroke="#3A4F8B" stroke-width="2"/>
<rect x="72.9474" y="73.2109" width="35.2105" height="35.2105" fill="#020D2C" stroke="#3A4F8B" stroke-width="2"/>
<rect x="106.158" y="73.2109" width="35.2105" height="35.2105" fill="#020D2C" stroke="#3A4F8B" stroke-width="2"/>
<rect x="139.369" y="73.2109" width="35.2105" height="35.2105" fill="#020D2C" stroke="#3A4F8B" stroke-width="2"/>
<rect x="172.579" y="73.2109" width="35.2105" height="35.2105" fill="#020D2C" stroke="#3A4F8B" stroke-width="2"/>
<rect x="205.79" y="73.2109" width="35.2105" height="35.2105" fill="#020D2C" stroke="#3A4F8B" stroke-width="2"/>
<rect x="239" y="73.2109" width="35.2105" height="35.2105" fill="#020D2C" stroke="#3A4F8B" stroke-width="2"/>
<rect x="272.211" y="73.2109" width="35.2105" height="35.2105" fill="#020D2C" stroke="#3A4F8B" stroke-width="2"/>
<rect x="305.421" y="73.2109" width="35.2105" height="35.2105" fill="#020D2C" stroke="#3A4F8B" stroke-width="2"/>
<rect x="338.632" y="73.2109" width="35.2105" height="35.2105" fill="#020D2C" stroke="#3A4F8B" stroke-width="2"/>
<rect x="371.842" y="73.2109" width="35.2105" height="35.2105" fill="#020D2C" stroke="#3A4F8B" stroke-width="2"/>
<rect x="405.053" y="73.2109" width="35.2105" height="35.2105" fill="#020D2C" stroke="#3A4F8B" stroke-width="2"/>
<rect x="438.263" y="73.2109" width="35.2105" height="35.2105" fill="#020D2C" stroke="#3A4F8B" stroke-width="2"/>
<rect x="471.474" y="73.2109" width="35.2105" height="35.2105" fill="#020D2C" stroke="#3A4F8B" stroke-width="2"/>
<rect x="504.684" y="73.2109" width="35.2105" height="35.2105" fill="#020D2C" stroke="#3A4F8B" stroke-width="2"/>
<rect x="537.895" y="73.2109" width="35.2105" height="35.2105" fill="#020D2C" stroke="#3A4F8B" stroke-width="2"/>
<rect x="571.105" y="73.2109" width="35.2105" height="35.2105" fill="#020D2C" stroke="#3A4F8B" stroke-width="2"/>
<rect x="-26.6841" y="106.422" width="35.2105" height="35.2105" fill="#020D2C" stroke="#3A4F8B" stroke-width="2"/>
<rect x="6.52637" y="106.422" width="35.2105" height="35.2105" fill="#020D2C" stroke="#3A4F8B" stroke-width="2"/>
<rect x="39.7369" y="106.422" width="35.2105" height="35.2105" fill="#020D2C" stroke="#3A4F8B" stroke-width="2"/>
<rect x="72.9474" y="106.422" width="35.2105" height="35.2105" fill="#020D2C" stroke="#3A4F8B" stroke-width="2"/>
<rect x="106.158" y="106.422" width="35.2105" height="35.2105" fill="#020D2C" stroke="#3A4F8B" stroke-width="2"/>
<rect x="139.369" y="106.422" width="35.2105" height="35.2105" fill="#020D2C" stroke="#3A4F8B" stroke-width="2"/>
<rect x="172.579" y="106.422" width="35.2105" height="35.2105" fill="#020D2C" stroke="#3A4F8B" stroke-width="2"/>
<rect x="205.79" y="106.422" width="35.2105" height="35.2105" fill="#020D2C" stroke="#3A4F8B" stroke-width="2"/>
<rect x="239" y="106.422" width="35.2105" height="35.2105" fill="#020D2C" stroke="#3A4F8B" stroke-width="2"/>
<rect x="272.211" y="106.422" width="35.2105" height="35.2105" fill="#020D2C" stroke="#3A4F8B" stroke-width="2"/>
<rect x="305.421" y="106.422" width="35.2105" height="35.2105" fill="#020D2C" stroke="#3A4F8B" stroke-width="2"/>
<rect x="338.632" y="106.422" width="35.2105" height="35.2105" fill="#020D2C" stroke="#3A4F8B" stroke-width="2"/>
<rect x="371.842" y="106.422" width="35.2105" height="35.2105" fill="#020D2C" stroke="#3A4F8B" stroke-width="2"/>
<rect x="405.053" y="106.422" width="35.2105" height="35.2105" fill="#020D2C" stroke="#3A4F8B" stroke-width="2"/>
<rect x="438.263" y="106.422" width="35.2105" height="35.2105" fill="#020D2C" stroke="#3A4F8B" stroke-width="2"/>
<rect x="471.474" y="106.422" width="35.2105" height="35.2105" fill="#020D2C" stroke="#3A4F8B" stroke-width="2"/>
<rect x="504.684" y="106.422" width="35.2105" height="35.2105" fill="#020D2C" stroke="#3A4F8B" stroke-width="2"/>
<rect x="537.895" y="106.422" width="35.2105" height="35.2105" fill="#020D2C" stroke="#3A4F8B" stroke-width="2"/>
<rect x="571.105" y="106.422" width="35.2105" height="35.2105" fill="#020D2C" stroke="#3A4F8B" stroke-width="2"/>
<rect x="-26.6841" y="139.633" width="35.2105" height="35.2105" fill="#020D2C" stroke="#3A4F8B" stroke-width="2"/>
<rect x="6.52637" y="139.633" width="35.2105" height="35.2105" fill="#020D2C" stroke="#3A4F8B" stroke-width="2"/>
<rect x="39.7369" y="139.633" width="35.2105" height="35.2105" fill="#020D2C" stroke="#3A4F8B" stroke-width="2"/>
<rect x="72.9474" y="139.633" width="35.2105" height="35.2105" fill="#020D2C" stroke="#3A4F8B" stroke-width="2"/>
<rect x="106.158" y="139.633" width="35.2105" height="35.2105" fill="#020D2C" stroke="#3A4F8B" stroke-width="2"/>
<rect x="139.369" y="139.633" width="35.2105" height="35.2105" fill="#020D2C" stroke="#3A4F8B" stroke-width="2"/>
<rect x="172.579" y="139.633" width="35.2105" height="35.2105" fill="#020D2C" stroke="#3A4F8B" stroke-width="2"/>
<rect x="205.79" y="139.633" width="35.2105" height="35.2105" fill="#020D2C" stroke="#3A4F8B" stroke-width="2"/>
<rect x="239" y="139.633" width="35.2105" height="35.2105" fill="#020D2C" stroke="#3A4F8B" stroke-width="2"/>
<rect x="272.211" y="139.633" width="35.2105" height="35.2105" fill="#020D2C" stroke="#3A4F8B" stroke-width="2"/>
<rect x="305.421" y="139.633" width="35.2105" height="35.2105" fill="#020D2C" stroke="#3A4F8B" stroke-width="2"/>
<rect x="338.632" y="139.633" width="35.2105" height="35.2105" fill="#020D2C" stroke="#3A4F8B" stroke-width="2"/>
<rect x="371.842" y="139.633" width="35.2105" height="35.2105" fill="#020D2C" stroke="#3A4F8B" stroke-width="2"/>
<rect x="405.053" y="139.633" width="35.2105" height="35.2105" fill="#020D2C" stroke="#3A4F8B" stroke-width="2"/>
<rect x="438.263" y="139.633" width="35.2105" height="35.2105" fill="#020D2C" stroke="#3A4F8B" stroke-width="2"/>
<rect x="471.474" y="139.633" width="35.2105" height="35.2105" fill="#020D2C" stroke="#3A4F8B" stroke-width="2"/>
<rect x="504.684" y="139.633" width="35.2105" height="35.2105" fill="#020D2C" stroke="#3A4F8B" stroke-width="2"/>
<rect x="537.895" y="139.633" width="35.2105" height="35.2105" fill="#020D2C" stroke="#3A4F8B" stroke-width="2"/>
<rect x="571.105" y="139.633" width="35.2105" height="35.2105" fill="#020D2C" stroke="#3A4F8B" stroke-width="2"/>
<rect x="-26.6841" y="172.844" width="35.2105" height="35.2105" fill="#020D2C" stroke="#3A4F8B" stroke-width="2"/>
<rect x="6.52637" y="172.844" width="35.2105" height="35.2105" fill="#020D2C" stroke="#3A4F8B" stroke-width="2"/>
<rect x="39.7369" y="172.844" width="35.2105" height="35.2105" fill="#020D2C" stroke="#3A4F8B" stroke-width="2"/>
<rect x="72.9474" y="172.844" width="35.2105" height="35.2105" fill="#020D2C" stroke="#3A4F8B" stroke-width="2"/>
<rect x="106.158" y="172.844" width="35.2105" height="35.2105" fill="#020D2C" stroke="#3A4F8B" stroke-width="2"/>
<rect x="139.369" y="172.844" width="35.2105" height="35.2105" fill="#020D2C" stroke="#3A4F8B" stroke-width="2"/>
<rect x="172.579" y="172.844" width="35.2105" height="35.2105" fill="#020D2C" stroke="#3A4F8B" stroke-width="2"/>
<rect x="205.79" y="172.844" width="35.2105" height="35.2105" fill="#020D2C" stroke="#3A4F8B" stroke-width="2"/>
<rect x="239" y="172.844" width="35.2105" height="35.2105" fill="#020D2C" stroke="#3A4F8B" stroke-width="2"/>
<rect x="272.211" y="172.844" width="35.2105" height="35.2105" fill="#020D2C" stroke="#3A4F8B" stroke-width="2"/>
<rect x="305.421" y="172.844" width="35.2105" height="35.2105" fill="#020D2C" stroke="#3A4F8B" stroke-width="2"/>
<rect x="338.632" y="172.844" width="35.2105" height="35.2105" fill="#020D2C" stroke="#3A4F8B" stroke-width="2"/>
<rect x="371.842" y="172.844" width="35.2105" height="35.2105" fill="#020D2C" stroke="#3A4F8B" stroke-width="2"/>
<rect x="405.053" y="172.844" width="35.2105" height="35.2105" fill="#020D2C" stroke="#3A4F8B" stroke-width="2"/>
<rect x="438.263" y="172.844" width="35.2105" height="35.2105" fill="#020D2C" stroke="#3A4F8B" stroke-width="2"/>
<rect x="471.474" y="172.844" width="35.2105" height="35.2105" fill="#020D2C" stroke="#3A4F8B" stroke-width="2"/>
<rect x="504.684" y="172.844" width="35.2105" height="35.2105" fill="#020D2C" stroke="#3A4F8B" stroke-width="2"/>
<rect x="537.895" y="172.844" width="35.2105" height="35.2105" fill="#020D2C" stroke="#3A4F8B" stroke-width="2"/>
<rect x="571.105" y="172.844" width="35.2105" height="35.2105" fill="#020D2C" stroke="#3A4F8B" stroke-width="2"/>
<rect x="-26.6841" y="206.051" width="35.2105" height="35.2105" fill="#020D2C" stroke="#3A4F8B" stroke-width="2"/>
<rect x="6.52637" y="206.051" width="35.2105" height="35.2105" fill="#020D2C" stroke="#3A4F8B" stroke-width="2"/>
<rect x="39.7369" y="206.051" width="35.2105" height="35.2105" fill="#020D2C" stroke="#3A4F8B" stroke-width="2"/>
<rect x="72.9474" y="206.051" width="35.2105" height="35.2105" fill="#020D2C" stroke="#3A4F8B" stroke-width="2"/>
<rect x="106.158" y="206.051" width="35.2105" height="35.2105" fill="#020D2C" stroke="#3A4F8B" stroke-width="2"/>
<rect x="139.369" y="206.051" width="35.2105" height="35.2105" fill="#020D2C" stroke="#3A4F8B" stroke-width="2"/>
<rect x="172.579" y="206.051" width="35.2105" height="35.2105" fill="#020D2C" stroke="#3A4F8B" stroke-width="2"/>
<rect x="205.79" y="206.051" width="35.2105" height="35.2105" fill="#020D2C" stroke="#3A4F8B" stroke-width="2"/>
<rect x="239" y="206.051" width="35.2105" height="35.2105" fill="#020D2C" stroke="#3A4F8B" stroke-width="2"/>
<rect x="272.211" y="206.051" width="35.2105" height="35.2105" fill="#020D2C" stroke="#3A4F8B" stroke-width="2"/>
<rect x="305.421" y="206.051" width="35.2105" height="35.2105" fill="#020D2C" stroke="#3A4F8B" stroke-width="2"/>
<rect x="338.632" y="206.051" width="35.2105" height="35.2105" fill="#020D2C" stroke="#3A4F8B" stroke-width="2"/>
<rect x="371.842" y="206.051" width="35.2105" height="35.2105" fill="#020D2C" stroke="#3A4F8B" stroke-width="2"/>
<rect x="405.053" y="206.051" width="35.2105" height="35.2105" fill="#020D2C" stroke="#3A4F8B" stroke-width="2"/>
<rect x="438.263" y="206.051" width="35.2105" height="35.2105" fill="#020D2C" stroke="#3A4F8B" stroke-width="2"/>
<rect x="471.474" y="206.051" width="35.2105" height="35.2105" fill="#020D2C" stroke="#3A4F8B" stroke-width="2"/>
<rect x="504.684" y="206.051" width="35.2105" height="35.2105" fill="#020D2C" stroke="#3A4F8B" stroke-width="2"/>
<rect x="537.895" y="206.051" width="35.2105" height="35.2105" fill="#020D2C" stroke="#3A4F8B" stroke-width="2"/>
<rect x="571.105" y="206.051" width="35.2105" height="35.2105" fill="#020D2C" stroke="#3A4F8B" stroke-width="2"/>
<rect x="-26.6841" y="239.262" width="35.2105" height="35.2105" fill="#020D2C" stroke="#3A4F8B" stroke-width="2"/>
<rect x="6.52637" y="239.262" width="35.2105" height="35.2105" fill="#020D2C" stroke="#3A4F8B" stroke-width="2"/>
<rect x="39.7369" y="239.262" width="35.2105" height="35.2105" fill="#020D2C" stroke="#3A4F8B" stroke-width="2"/>
<rect x="72.9474" y="239.262" width="35.2105" height="35.2105" fill="#020D2C" stroke="#3A4F8B" stroke-width="2"/>
<rect x="106.158" y="239.262" width="35.2105" height="35.2105" fill="#020D2C" stroke="#3A4F8B" stroke-width="2"/>
<rect x="139.369" y="239.262" width="35.2105" height="35.2105" fill="#020D2C" stroke="#3A4F8B" stroke-width="2"/>
<rect x="172.579" y="239.262" width="35.2105" height="35.2105" fill="#020D2C" stroke="#3A4F8B" stroke-width="2"/>
<rect x="205.79" y="239.262" width="35.2105" height="35.2105" fill="#020D2C" stroke="#3A4F8B" stroke-width="2"/>
<rect x="239" y="239.262" width="35.2105" height="35.2105" fill="#020D2C" stroke="#3A4F8B" stroke-width="2"/>
<rect x="272.211" y="239.262" width="35.2105" height="35.2105" fill="#020D2C" stroke="#3A4F8B" stroke-width="2"/>
<rect x="305.421" y="239.262" width="35.2105" height="35.2105" fill="#020D2C" stroke="#3A4F8B" stroke-width="2"/>
<rect x="338.632" y="239.262" width="35.2105" height="35.2105" fill="#020D2C" stroke="#3A4F8B" stroke-width="2"/>
<rect x="371.842" y="239.262" width="35.2105" height="35.2105" fill="#020D2C" stroke="#3A4F8B" stroke-width="2"/>
<rect x="405.053" y="239.262" width="35.2105" height="35.2105" fill="#020D2C" stroke="#3A4F8B" stroke-width="2"/>
<rect x="438.263" y="239.262" width="35.2105" height="35.2105" fill="#020D2C" stroke="#3A4F8B" stroke-width="2"/>
<rect x="471.474" y="239.262" width="35.2105" height="35.2105" fill="#020D2C" stroke="#3A4F8B" stroke-width="2"/>
<rect x="504.684" y="239.262" width="35.2105" height="35.2105" fill="#020D2C" stroke="#3A4F8B" stroke-width="2"/>
<rect x="537.895" y="239.262" width="35.2105" height="35.2105" fill="#020D2C" stroke="#3A4F8B" stroke-width="2"/>
<rect x="571.105" y="239.262" width="35.2105" height="35.2105" fill="#020D2C" stroke="#3A4F8B" stroke-width="2"/>
<rect x="-26.6841" y="272.473" width="35.2105" height="35.2105" fill="#020D2C" stroke="#3A4F8B" stroke-width="2"/>
<rect x="6.52637" y="272.473" width="35.2105" height="35.2105" fill="#020D2C" stroke="#3A4F8B" stroke-width="2"/>
<rect x="39.7369" y="272.473" width="35.2105" height="35.2105" fill="#020D2C" stroke="#3A4F8B" stroke-width="2"/>
<rect x="72.9474" y="272.473" width="35.2105" height="35.2105" fill="#020D2C" stroke="#3A4F8B" stroke-width="2"/>
<rect x="106.158" y="272.473" width="35.2105" height="35.2105" fill="#020D2C" stroke="#3A4F8B" stroke-width="2"/>
<rect x="139.369" y="272.473" width="35.2105" height="35.2105" fill="#020D2C" stroke="#3A4F8B" stroke-width="2"/>
<rect x="172.579" y="272.473" width="35.2105" height="35.2105" fill="#020D2C" stroke="#3A4F8B" stroke-width="2"/>
<rect x="205.79" y="272.473" width="35.2105" height="35.2105" fill="#020D2C" stroke="#3A4F8B" stroke-width="2"/>
<rect x="239" y="272.473" width="35.2105" height="35.2105" fill="#020D2C" stroke="#3A4F8B" stroke-width="2"/>
<rect x="272.211" y="272.473" width="35.2105" height="35.2105" fill="#020D2C" stroke="#3A4F8B" stroke-width="2"/>
<rect x="305.421" y="272.473" width="35.2105" height="35.2105" fill="#020D2C" stroke="#3A4F8B" stroke-width="2"/>
<rect x="338.632" y="272.473" width="35.2105" height="35.2105" fill="#020D2C" stroke="#3A4F8B" stroke-width="2"/>
<rect x="371.842" y="272.473" width="35.2105" height="35.2105" fill="#020D2C" stroke="#3A4F8B" stroke-width="2"/>
<rect x="405.053" y="272.473" width="35.2105" height="35.2105" fill="#020D2C" stroke="#3A4F8B" stroke-width="2"/>
<rect x="438.263" y="272.473" width="35.2105" height="35.2105" fill="#020D2C" stroke="#3A4F8B" stroke-width="2"/>
<rect x="471.474" y="272.473" width="35.2105" height="35.2105" fill="#020D2C" stroke="#3A4F8B" stroke-width="2"/>
<rect x="504.684" y="272.473" width="35.2105" height="35.2105" fill="#020D2C" stroke="#3A4F8B" stroke-width="2"/>
<rect x="537.895" y="272.473" width="35.2105" height="35.2105" fill="#020D2C" stroke="#3A4F8B" stroke-width="2"/>
<rect x="571.105" y="272.473" width="35.2105" height="35.2105" fill="#020D2C" stroke="#3A4F8B" stroke-width="2"/>
<rect x="-26.6841" y="305.684" width="35.2105" height="35.2105" fill="#020D2C" stroke="#3A4F8B" stroke-width="2"/>
<rect x="6.52643" y="305.684" width="35.2105" height="35.2105" fill="#020D2C" stroke="#3A4F8B" stroke-width="2"/>
<rect x="39.737" y="305.684" width="35.2105" height="35.2105" fill="#020D2C" stroke="#3A4F8B" stroke-width="2"/>
<rect x="72.9474" y="305.684" width="35.2105" height="35.2105" fill="#020D2C" stroke="#3A4F8B" stroke-width="2"/>
<rect x="106.158" y="305.684" width="35.2105" height="35.2105" fill="#020D2C" stroke="#3A4F8B" stroke-width="2"/>
<rect x="139.369" y="305.684" width="35.2105" height="35.2105" fill="#020D2C" stroke="#3A4F8B" stroke-width="2"/>
<rect x="172.579" y="305.684" width="35.2105" height="35.2105" fill="#020D2C" stroke="#3A4F8B" stroke-width="2"/>
<rect x="205.79" y="305.684" width="35.2105" height="35.2105" fill="#020D2C" stroke="#3A4F8B" stroke-width="2"/>
<rect x="239" y="305.684" width="35.2105" height="35.2105" fill="#020D2C" stroke="#3A4F8B" stroke-width="2"/>
<rect x="272.211" y="305.684" width="35.2105" height="35.2105" fill="#020D2C" stroke="#3A4F8B" stroke-width="2"/>
<rect x="305.421" y="305.684" width="35.2105" height="35.2105" fill="#020D2C" stroke="#3A4F8B" stroke-width="2"/>
<rect x="338.632" y="305.684" width="35.2105" height="35.2105" fill="#020D2C" stroke="#3A4F8B" stroke-width="2"/>
<rect x="371.842" y="305.684" width="35.2105" height="35.2105" fill="#020D2C" stroke="#3A4F8B" stroke-width="2"/>
<rect x="405.053" y="305.684" width="35.2105" height="35.2105" fill="#020D2C" stroke="#3A4F8B" stroke-width="2"/>
<rect x="438.263" y="305.684" width="35.2105" height="35.2105" fill="#020D2C" stroke="#3A4F8B" stroke-width="2"/>
<rect x="471.474" y="305.684" width="35.2105" height="35.2105" fill="#020D2C" stroke="#3A4F8B" stroke-width="2"/>
<rect x="504.684" y="305.684" width="35.2105" height="35.2105" fill="#020D2C" stroke="#3A4F8B" stroke-width="2"/>
<rect x="537.895" y="305.684" width="35.2105" height="35.2105" fill="#020D2C" stroke="#3A4F8B" stroke-width="2"/>
<rect x="571.105" y="305.684" width="35.2105" height="35.2105" fill="#020D2C" stroke="#3A4F8B" stroke-width="2"/>
<rect x="-26.6841" y="338.895" width="35.2105" height="35.2105" fill="#020D2C" stroke="#3A4F8B" stroke-width="2"/>
<rect x="6.52637" y="338.895" width="35.2105" height="35.2105" fill="#020D2C" stroke="#3A4F8B" stroke-width="2"/>
<rect x="39.7369" y="338.895" width="35.2105" height="35.2105" fill="#020D2C" stroke="#3A4F8B" stroke-width="2"/>
<rect x="72.9474" y="338.895" width="35.2105" height="35.2105" fill="#020D2C" stroke="#3A4F8B" stroke-width="2"/>
<rect x="106.158" y="338.895" width="35.2105" height="35.2105" fill="#020D2C" stroke="#3A4F8B" stroke-width="2"/>
<rect x="139.369" y="338.895" width="35.2105" height="35.2105" fill="#020D2C" stroke="#3A4F8B" stroke-width="2"/>
<rect x="172.579" y="338.895" width="35.2105" height="35.2105" fill="#020D2C" stroke="#3A4F8B" stroke-width="2"/>
<rect x="205.79" y="338.895" width="35.2105" height="35.2105" fill="#020D2C" stroke="#3A4F8B" stroke-width="2"/>
<rect x="239" y="338.895" width="35.2105" height="35.2105" fill="#020D2C" stroke="#3A4F8B" stroke-width="2"/>
<rect x="272.211" y="338.895" width="35.2105" height="35.2105" fill="#020D2C" stroke="#3A4F8B" stroke-width="2"/>
<rect x="305.421" y="338.895" width="35.2105" height="35.2105" fill="#020D2C" stroke="#3A4F8B" stroke-width="2"/>
<rect x="338.632" y="338.895" width="35.2105" height="35.2105" fill="#020D2C" stroke="#3A4F8B" stroke-width="2"/>
<rect x="371.842" y="338.895" width="35.2105" height="35.2105" fill="#020D2C" stroke="#3A4F8B" stroke-width="2"/>
<rect x="405.053" y="338.895" width="35.2105" height="35.2105" fill="#020D2C" stroke="#3A4F8B" stroke-width="2"/>
<rect x="438.263" y="338.895" width="35.2105" height="35.2105" fill="#020D2C" stroke="#3A4F8B" stroke-width="2"/>
<rect x="471.474" y="338.895" width="35.2105" height="35.2105" fill="#020D2C" stroke="#3A4F8B" stroke-width="2"/>
<rect x="504.684" y="338.895" width="35.2105" height="35.2105" fill="#020D2C" stroke="#3A4F8B" stroke-width="2"/>
<rect x="537.895" y="338.895" width="35.2105" height="35.2105" fill="#020D2C" stroke="#3A4F8B" stroke-width="2"/>
<rect x="571.105" y="338.895" width="35.2105" height="35.2105" fill="#020D2C" stroke="#3A4F8B" stroke-width="2"/>
<rect x="-26.6841" y="372.105" width="35.2105" height="35.2105" fill="#020D2C" stroke="#3A4F8B" stroke-width="2"/>
<rect x="6.52637" y="372.105" width="35.2105" height="35.2105" fill="#020D2C" stroke="#3A4F8B" stroke-width="2"/>
<rect x="39.7369" y="372.105" width="35.2105" height="35.2105" fill="#020D2C" stroke="#3A4F8B" stroke-width="2"/>
<rect x="72.9474" y="372.105" width="35.2105" height="35.2105" fill="#020D2C" stroke="#3A4F8B" stroke-width="2"/>
<rect x="106.158" y="372.105" width="35.2105" height="35.2105" fill="#020D2C" stroke="#3A4F8B" stroke-width="2"/>
<rect x="139.369" y="372.105" width="35.2105" height="35.2105" fill="#020D2C" stroke="#3A4F8B" stroke-width="2"/>
<rect x="172.579" y="372.105" width="35.2105" height="35.2105" fill="#020D2C" stroke="#3A4F8B" stroke-width="2"/>
<rect x="205.79" y="372.105" width="35.2105" height="35.2105" fill="#020D2C" stroke="#3A4F8B" stroke-width="2"/>
<rect x="239" y="372.105" width="35.2105" height="35.2105" fill="#020D2C" stroke="#3A4F8B" stroke-width="2"/>
<rect x="272.211" y="372.105" width="35.2105" height="35.2105" fill="#020D2C" stroke="#3A4F8B" stroke-width="2"/>
<rect x="305.421" y="372.105" width="35.2105" height="35.2105" fill="#020D2C" stroke="#3A4F8B" stroke-width="2"/>
<rect x="338.632" y="372.105" width="35.2105" height="35.2105" fill="#020D2C" stroke="#3A4F8B" stroke-width="2"/>
<rect x="371.842" y="372.105" width="35.2105" height="35.2105" fill="#020D2C" stroke="#3A4F8B" stroke-width="2"/>
<rect x="405.053" y="372.105" width="35.2105" height="35.2105" fill="#020D2C" stroke="#3A4F8B" stroke-width="2"/>
<rect x="438.263" y="372.105" width="35.2105" height="35.2105" fill="#020D2C" stroke="#3A4F8B" stroke-width="2"/>
<rect x="471.474" y="372.105" width="35.2105" height="35.2105" fill="#020D2C" stroke="#3A4F8B" stroke-width="2"/>
<rect x="504.684" y="372.105" width="35.2105" height="35.2105" fill="#020D2C" stroke="#3A4F8B" stroke-width="2"/>
<rect x="537.895" y="372.105" width="35.2105" height="35.2105" fill="#020D2C" stroke="#3A4F8B" stroke-width="2"/>
<rect x="571.105" y="372.105" width="35.2105" height="35.2105" fill="#020D2C" stroke="#3A4F8B" stroke-width="2"/>
<rect x="-26.6841" y="405.316" width="35.2105" height="35.2105" fill="#020D2C" stroke="#3A4F8B" stroke-width="2"/>
<rect x="6.52643" y="405.316" width="35.2105" height="35.2105" fill="#020D2C" stroke="#3A4F8B" stroke-width="2"/>
<rect x="39.737" y="405.316" width="35.2105" height="35.2105" fill="#020D2C" stroke="#3A4F8B" stroke-width="2"/>
<rect x="72.9474" y="405.316" width="35.2105" height="35.2105" fill="#020D2C" stroke="#3A4F8B" stroke-width="2"/>
<rect x="106.158" y="405.316" width="35.2105" height="35.2105" fill="#020D2C" stroke="#3A4F8B" stroke-width="2"/>
<rect x="139.369" y="405.316" width="35.2105" height="35.2105" fill="#020D2C" stroke="#3A4F8B" stroke-width="2"/>
<rect x="172.579" y="405.316" width="35.2105" height="35.2105" fill="#020D2C" stroke="#3A4F8B" stroke-width="2"/>
<rect x="205.79" y="405.316" width="35.2105" height="35.2105" fill="#020D2C" stroke="#3A4F8B" stroke-width="2"/>
<rect x="239" y="405.316" width="35.2105" height="35.2105" fill="#020D2C" stroke="#3A4F8B" stroke-width="2"/>
<rect x="272.211" y="405.316" width="35.2105" height="35.2105" fill="#020D2C" stroke="#3A4F8B" stroke-width="2"/>
<rect x="305.421" y="405.316" width="35.2105" height="35.2105" fill="#020D2C" stroke="#3A4F8B" stroke-width="2"/>
<rect x="338.632" y="405.316" width="35.2105" height="35.2105" fill="#020D2C" stroke="#3A4F8B" stroke-width="2"/>
<rect x="371.842" y="405.316" width="35.2105" height="35.2105" fill="#020D2C" stroke="#3A4F8B" stroke-width="2"/>
<rect x="405.053" y="405.316" width="35.2105" height="35.2105" fill="#020D2C" stroke="#3A4F8B" stroke-width="2"/>
<rect x="438.263" y="405.316" width="35.2105" height="35.2105" fill="#020D2C" stroke="#3A4F8B" stroke-width="2"/>
<rect x="471.474" y="405.316" width="35.2105" height="35.2105" fill="#020D2C" stroke="#3A4F8B" stroke-width="2"/>
<rect x="504.684" y="405.316" width="35.2105" height="35.2105" fill="#020D2C" stroke="#3A4F8B" stroke-width="2"/>
<rect x="537.895" y="405.316" width="35.2105" height="35.2105" fill="#020D2C" stroke="#3A4F8B" stroke-width="2"/>
<rect x="571.105" y="405.316" width="35.2105" height="35.2105" fill="#020D2C" stroke="#3A4F8B" stroke-width="2"/>
<rect x="-26.6841" y="438.527" width="35.2105" height="35.2105" fill="#020D2C" stroke="#3A4F8B" stroke-width="2"/>
<rect x="6.52637" y="438.527" width="35.2105" height="35.2105" fill="#020D2C" stroke="#3A4F8B" stroke-width="2"/>
<rect x="39.7369" y="438.527" width="35.2105" height="35.2105" fill="#020D2C" stroke="#3A4F8B" stroke-width="2"/>
<rect x="72.9474" y="438.527" width="35.2105" height="35.2105" fill="#020D2C" stroke="#3A4F8B" stroke-width="2"/>
<rect x="106.158" y="438.527" width="35.2105" height="35.2105" fill="#020D2C" stroke="#3A4F8B" stroke-width="2"/>
<rect x="139.369" y="438.527" width="35.2105" height="35.2105" fill="#020D2C" stroke="#3A4F8B" stroke-width="2"/>
<rect x="172.579" y="438.527" width="35.2105" height="35.2105" fill="#020D2C" stroke="#3A4F8B" stroke-width="2"/>
<rect x="205.79" y="438.527" width="35.2105" height="35.2105" fill="#020D2C" stroke="#3A4F8B" stroke-width="2"/>
<rect x="239" y="438.527" width="35.2105" height="35.2105" fill="#020D2C" stroke="#3A4F8B" stroke-width="2"/>
<rect x="272.211" y="438.527" width="35.2105" height="35.2105" fill="#020D2C" stroke="#3A4F8B" stroke-width="2"/>
<rect x="305.421" y="438.527" width="35.2105" height="35.2105" fill="#020D2C" stroke="#3A4F8B" stroke-width="2"/>
<rect x="338.632" y="438.527" width="35.2105" height="35.2105" fill="#020D2C" stroke="#3A4F8B" stroke-width="2"/>
<rect x="371.842" y="438.527" width="35.2105" height="35.2105" fill="#020D2C" stroke="#3A4F8B" stroke-width="2"/>
<rect x="405.053" y="438.527" width="35.2105" height="35.2105" fill="#020D2C" stroke="#3A4F8B" stroke-width="2"/>
<rect x="438.263" y="438.527" width="35.2105" height="35.2105" fill="#020D2C" stroke="#3A4F8B" stroke-width="2"/>
<rect x="471.474" y="438.527" width="35.2105" height="35.2105" fill="#020D2C" stroke="#3A4F8B" stroke-width="2"/>
<rect x="504.684" y="438.527" width="35.2105" height="35.2105" fill="#020D2C" stroke="#3A4F8B" stroke-width="2"/>
<rect x="537.895" y="438.527" width="35.2105" height="35.2105" fill="#020D2C" stroke="#3A4F8B" stroke-width="2"/>
<rect x="571.105" y="438.527" width="35.2105" height="35.2105" fill="#020D2C" stroke="#3A4F8B" stroke-width="2"/>
<rect x="-26.6841" y="471.738" width="35.2105" height="35.2105" fill="#020D2C" stroke="#3A4F8B" stroke-width="2"/>
<rect x="6.52637" y="471.738" width="35.2105" height="35.2105" fill="#020D2C" stroke="#3A4F8B" stroke-width="2"/>
<rect x="39.7369" y="471.738" width="35.2105" height="35.2105" fill="#020D2C" stroke="#3A4F8B" stroke-width="2"/>
<rect x="72.9474" y="471.738" width="35.2105" height="35.2105" fill="#020D2C" stroke="#3A4F8B" stroke-width="2"/>
<rect x="106.158" y="471.738" width="35.2105" height="35.2105" fill="#020D2C" stroke="#3A4F8B" stroke-width="2"/>
<rect x="139.369" y="471.738" width="35.2105" height="35.2105" fill="#020D2C" stroke="#3A4F8B" stroke-width="2"/>
<rect x="172.579" y="471.738" width="35.2105" height="35.2105" fill="#020D2C" stroke="#3A4F8B" stroke-width="2"/>
<rect x="205.79" y="471.738" width="35.2105" height="35.2105" fill="#020D2C" stroke="#3A4F8B" stroke-width="2"/>
<rect x="239" y="471.738" width="35.2105" height="35.2105" fill="#020D2C" stroke="#3A4F8B" stroke-width="2"/>
<rect x="272.211" y="471.738" width="35.2105" height="35.2105" fill="#020D2C" stroke="#3A4F8B" stroke-width="2"/>
<rect x="305.421" y="471.738" width="35.2105" height="35.2105" fill="#020D2C" stroke="#3A4F8B" stroke-width="2"/>
<rect x="338.632" y="471.738" width="35.2105" height="35.2105" fill="#020D2C" stroke="#3A4F8B" stroke-width="2"/>
<rect x="371.842" y="471.738" width="35.2105" height="35.2105" fill="#020D2C" stroke="#3A4F8B" stroke-width="2"/>
<rect x="405.053" y="471.738" width="35.2105" height="35.2105" fill="#020D2C" stroke="#3A4F8B" stroke-width="2"/>
<rect x="438.263" y="471.738" width="35.2105" height="35.2105" fill="#020D2C" stroke="#3A4F8B" stroke-width="2"/>
<rect x="471.474" y="471.738" width="35.2105" height="35.2105" fill="#020D2C" stroke="#3A4F8B" stroke-width="2"/>
<rect x="504.684" y="471.738" width="35.2105" height="35.2105" fill="#020D2C" stroke="#3A4F8B" stroke-width="2"/>
<rect x="537.895" y="471.738" width="35.2105" height="35.2105" fill="#020D2C" stroke="#3A4F8B" stroke-width="2"/>
<rect x="571.105" y="471.738" width="35.2105" height="35.2105" fill="#020D2C" stroke="#3A4F8B" stroke-width="2"/>
<rect x="-26.6841" y="504.945" width="35.2105" height="35.2105" fill="#020D2C" stroke="#3A4F8B" stroke-width="2"/>
<rect x="6.52637" y="504.945" width="35.2105" height="35.2105" fill="#020D2C" stroke="#3A4F8B" stroke-width="2"/>
<rect x="39.7369" y="504.945" width="35.2105" height="35.2105" fill="#020D2C" stroke="#3A4F8B" stroke-width="2"/>
<rect x="72.9474" y="504.945" width="35.2105" height="35.2105" fill="#020D2C" stroke="#3A4F8B" stroke-width="2"/>
<rect x="106.158" y="504.945" width="35.2105" height="35.2105" fill="#020D2C" stroke="#3A4F8B" stroke-width="2"/>
<rect x="139.369" y="504.945" width="35.2105" height="35.2105" fill="#020D2C" stroke="#3A4F8B" stroke-width="2"/>
<rect x="172.579" y="504.945" width="35.2105" height="35.2105" fill="#020D2C" stroke="#3A4F8B" stroke-width="2"/>
<rect x="205.79" y="504.945" width="35.2105" height="35.2105" fill="#020D2C" stroke="#3A4F8B" stroke-width="2"/>
<rect x="239" y="504.945" width="35.2105" height="35.2105" fill="#020D2C" stroke="#3A4F8B" stroke-width="2"/>
<rect x="272.211" y="504.945" width="35.2105" height="35.2105" fill="#020D2C" stroke="#3A4F8B" stroke-width="2"/>
<rect x="305.421" y="504.945" width="35.2105" height="35.2105" fill="#020D2C" stroke="#3A4F8B" stroke-width="2"/>
<rect x="338.632" y="504.945" width="35.2105" height="35.2105" fill="#020D2C" stroke="#3A4F8B" stroke-width="2"/>
<rect x="371.842" y="504.945" width="35.2105" height="35.2105" fill="#020D2C" stroke="#3A4F8B" stroke-width="2"/>
<rect x="405.053" y="504.945" width="35.2105" height="35.2105" fill="#020D2C" stroke="#3A4F8B" stroke-width="2"/>
<rect x="438.263" y="504.945" width="35.2105" height="35.2105" fill="#020D2C" stroke="#3A4F8B" stroke-width="2"/>
<rect x="471.474" y="504.945" width="35.2105" height="35.2105" fill="#020D2C" stroke="#3A4F8B" stroke-width="2"/>
<rect x="504.684" y="504.945" width="35.2105" height="35.2105" fill="#020D2C" stroke="#3A4F8B" stroke-width="2"/>
<rect x="537.895" y="504.945" width="35.2105" height="35.2105" fill="#020D2C" stroke="#3A4F8B" stroke-width="2"/>
<rect x="571.105" y="504.945" width="35.2105" height="35.2105" fill="#020D2C" stroke="#3A4F8B" stroke-width="2"/>
<rect x="-26.6841" y="538.156" width="35.2105" height="35.2105" fill="#020D2C" stroke="#3A4F8B" stroke-width="2"/>
<rect x="6.52637" y="538.156" width="35.2105" height="35.2105" fill="#020D2C" stroke="#3A4F8B" stroke-width="2"/>
<rect x="39.7369" y="538.156" width="35.2105" height="35.2105" fill="#020D2C" stroke="#3A4F8B" stroke-width="2"/>
<rect x="72.9474" y="538.156" width="35.2105" height="35.2105" fill="#020D2C" stroke="#3A4F8B" stroke-width="2"/>
<rect x="106.158" y="538.156" width="35.2105" height="35.2105" fill="#020D2C" stroke="#3A4F8B" stroke-width="2"/>
<rect x="139.369" y="538.156" width="35.2105" height="35.2105" fill="#020D2C" stroke="#3A4F8B" stroke-width="2"/>
<rect x="172.579" y="538.156" width="35.2105" height="35.2105" fill="#020D2C" stroke="#3A4F8B" stroke-width="2"/>
<rect x="205.79" y="538.156" width="35.2105" height="35.2105" fill="#020D2C" stroke="#3A4F8B" stroke-width="2"/>
<rect x="239" y="538.156" width="35.2105" height="35.2105" fill="#020D2C" stroke="#3A4F8B" stroke-width="2"/>
<rect x="272.211" y="538.156" width="35.2105" height="35.2105" fill="#020D2C" stroke="#3A4F8B" stroke-width="2"/>
<rect x="305.421" y="538.156" width="35.2105" height="35.2105" fill="#020D2C" stroke="#3A4F8B" stroke-width="2"/>
<rect x="338.632" y="538.156" width="35.2105" height="35.2105" fill="#020D2C" stroke="#3A4F8B" stroke-width="2"/>
<rect x="371.842" y="538.156" width="35.2105" height="35.2105" fill="#020D2C" stroke="#3A4F8B" stroke-width="2"/>
<rect x="405.053" y="538.156" width="35.2105" height="35.2105" fill="#020D2C" stroke="#3A4F8B" stroke-width="2"/>
<rect x="438.263" y="538.156" width="35.2105" height="35.2105" fill="#020D2C" stroke="#3A4F8B" stroke-width="2"/>
<rect x="471.474" y="538.156" width="35.2105" height="35.2105" fill="#020D2C" stroke="#3A4F8B" stroke-width="2"/>
<rect x="504.684" y="538.156" width="35.2105" height="35.2105" fill="#020D2C" stroke="#3A4F8B" stroke-width="2"/>
<rect x="537.895" y="538.156" width="35.2105" height="35.2105" fill="#020D2C" stroke="#3A4F8B" stroke-width="2"/>
<rect x="571.105" y="538.156" width="35.2105" height="35.2105" fill="#020D2C" stroke="#3A4F8B" stroke-width="2"/>
<rect x="-26.6841" y="571.367" width="35.2105" height="35.2105" fill="#020D2C" stroke="#3A4F8B" stroke-width="2"/>
<rect x="6.52637" y="571.367" width="35.2105" height="35.2105" fill="#020D2C" stroke="#3A4F8B" stroke-width="2"/>
<rect x="39.7369" y="571.367" width="35.2105" height="35.2105" fill="#020D2C" stroke="#3A4F8B" stroke-width="2"/>
<rect x="72.9474" y="571.367" width="35.2105" height="35.2105" fill="#020D2C" stroke="#3A4F8B" stroke-width="2"/>
<rect x="106.158" y="571.367" width="35.2105" height="35.2105" fill="#020D2C" stroke="#3A4F8B" stroke-width="2"/>
<rect x="139.369" y="571.367" width="35.2105" height="35.2105" fill="#020D2C" stroke="#3A4F8B" stroke-width="2"/>
<rect x="172.579" y="571.367" width="35.2105" height="35.2105" fill="#020D2C" stroke="#3A4F8B" stroke-width="2"/>
<rect x="205.79" y="571.367" width="35.2105" height="35.2105" fill="#020D2C" stroke="#3A4F8B" stroke-width="2"/>
<rect x="239" y="571.367" width="35.2105" height="35.2105" fill="#020D2C" stroke="#3A4F8B" stroke-width="2"/>
<rect x="272.211" y="571.367" width="35.2105" height="35.2105" fill="#020D2C" stroke="#3A4F8B" stroke-width="2"/>
<rect x="305.421" y="571.367" width="35.2105" height="35.2105" fill="#020D2C" stroke="#3A4F8B" stroke-width="2"/>
<rect x="338.632" y="571.367" width="35.2105" height="35.2105" fill="#020D2C" stroke="#3A4F8B" stroke-width="2"/>
<rect x="371.842" y="571.367" width="35.2105" height="35.2105" fill="#020D2C" stroke="#3A4F8B" stroke-width="2"/>
<rect x="405.053" y="571.367" width="35.2105" height="35.2105" fill="#020D2C" stroke="#3A4F8B" stroke-width="2"/>
<rect x="438.263" y="571.367" width="35.2105" height="35.2105" fill="#020D2C" stroke="#3A4F8B" stroke-width="2"/>
<rect x="471.474" y="571.367" width="35.2105" height="35.2105" fill="#020D2C" stroke="#3A4F8B" stroke-width="2"/>
<rect x="504.684" y="571.367" width="35.2105" height="35.2105" fill="#020D2C" stroke="#3A4F8B" stroke-width="2"/>
<rect x="537.895" y="571.367" width="35.2105" height="35.2105" fill="#020D2C" stroke="#3A4F8B" stroke-width="2"/>
<rect x="571.105" y="571.367" width="35.2105" height="35.2105" fill="#020D2C" stroke="#3A4F8B" stroke-width="2"/>
<rect x="-26.6841" y="604.578" width="35.2105" height="35.2105" fill="#020D2C" stroke="#3A4F8B" stroke-width="2"/>
<rect x="6.52637" y="604.578" width="35.2105" height="35.2105" fill="#020D2C" stroke="#3A4F8B" stroke-width="2"/>
<rect x="39.7369" y="604.578" width="35.2105" height="35.2105" fill="#020D2C" stroke="#3A4F8B" stroke-width="2"/>
<rect x="72.9474" y="604.578" width="35.2105" height="35.2105" fill="#020D2C" stroke="#3A4F8B" stroke-width="2"/>
<rect x="106.158" y="604.578" width="35.2105" height="35.2105" fill="#020D2C" stroke="#3A4F8B" stroke-width="2"/>
<rect x="139.369" y="604.578" width="35.2105" height="35.2105" fill="#020D2C" stroke="#3A4F8B" stroke-width="2"/>
<rect x="172.579" y="604.578" width="35.2105" height="35.2105" fill="#020D2C" stroke="#3A4F8B" stroke-width="2"/>
<rect x="205.79" y="604.578" width="35.2105" height="35.2105" fill="#020D2C" stroke="#3A4F8B" stroke-width="2"/>
<rect x="239" y="604.578" width="35.2105" height="35.2105" fill="#020D2C" stroke="#3A4F8B" stroke-width="2"/>
<rect x="272.211" y="604.578" width="35.2105" height="35.2105" fill="#020D2C" stroke="#3A4F8B" stroke-width="2"/>
<rect x="305.421" y="604.578" width="35.2105" height="35.2105" fill="#020D2C" stroke="#3A4F8B" stroke-width="2"/>
<rect x="338.632" y="604.578" width="35.2105" height="35.2105" fill="#020D2C" stroke="#3A4F8B" stroke-width="2"/>
<rect x="371.842" y="604.578" width="35.2105" height="35.2105" fill="#020D2C" stroke="#3A4F8B" stroke-width="2"/>
<rect x="405.053" y="604.578" width="35.2105" height="35.2105" fill="#020D2C" stroke="#3A4F8B" stroke-width="2"/>
<rect x="438.263" y="604.578" width="35.2105" height="35.2105" fill="#020D2C" stroke="#3A4F8B" stroke-width="2"/>
<rect x="471.474" y="604.578" width="35.2105" height="35.2105" fill="#020D2C" stroke="#3A4F8B" stroke-width="2"/>
<rect x="504.684" y="604.578" width="35.2105" height="35.2105" fill="#020D2C" stroke="#3A4F8B" stroke-width="2"/>
<rect x="537.895" y="604.578" width="35.2105" height="35.2105" fill="#020D2C" stroke="#3A4F8B" stroke-width="2"/>
<rect x="571.105" y="604.578" width="35.2105" height="35.2105" fill="#020D2C" stroke="#3A4F8B" stroke-width="2"/>
</g>
<rect x="-30" y="31" width="672" height="608" fill="url(#paint0_radial_2406_6901)"/>
<path d="M165.696 170.629L334.395 146.553C336.064 146.318 337.815 146.457 339.477 146.923L339.515 146.933C340.953 147.339 342.281 148.005 343.368 148.895L442.505 228.213L478.444 256.97C478.495 257.004 478.527 257.034 478.555 257.082C479.112 257.624 479.58 258.204 479.962 258.802C480.325 259.395 479.976 260.024 479.224 260.133L352.082 278.282L302.881 285.3L302.701 285.149L263.485 253.779L162.645 173.095C162.053 172.606 162.065 171.887 162.676 171.555C163.582 171.095 164.589 170.787 165.696 170.629ZM312.715 246.727L312.914 246.884L312.965 246.691L390.778 235.587C391.719 235.447 391.962 234.541 391.222 233.929L329.496 184.548C329.149 184.269 328.662 184.138 328.222 184.206L250.887 195.253C249.945 195.393 249.703 196.299 250.443 196.91L312.715 246.727Z" fill="#337AE2"/>
<path d="M151.527 210.607L183.21 235.91L222.025 266.904L253.097 291.713L291.675 322.54L291.912 322.707L341.237 315.825L469.9 297.918L475.2 278.889L478.328 267.664L480.448 260.053L341.687 279.365L302.436 284.856L302.185 284.892L302.237 284.699L271.369 260.027L271.35 260.022L232.554 229.033L162.069 172.761L151.527 210.607Z" fill="white"/>
<path d="M450.513 369.522L322.338 387.106L272.774 393.902L233.707 362.427L132.496 280.881L142.612 242.301L283.27 355.631L460.526 331.327L450.513 369.522Z" fill="white"/>
<path d="M431.696 439.748L303.521 457.332L253.957 464.129L214.89 432.654L113.679 351.107L123.795 312.527L264.453 425.857L441.709 401.554L431.696 439.748Z" fill="white"/>
<mask id="mask0_2406_6901" style="mask-type:alpha" maskUnits="userSpaceOnUse" x="113" y="311" width="329" height="155">
<path fill-rule="evenodd" clip-rule="evenodd" d="M126.877 311.935C125.463 310.776 123.317 311.468 122.842 313.236L113.128 349.4C112.872 350.353 113.198 351.367 113.96 351.992L213.502 433.51L251.741 464.824C252.283 465.268 252.987 465.465 253.683 465.369L302.609 458.582L429.717 440.944C430.722 440.804 431.548 440.076 431.811 439.097L441.427 403.288C441.894 401.55 440.438 399.904 438.654 400.151L264.15 424.353L126.877 311.935ZM125.276 313.881L262.548 426.3C263.09 426.744 263.794 426.941 264.49 426.845L438.994 402.643L429.377 438.452L253.343 462.877L115.562 350.045L125.276 313.881Z" fill="#EFF2FD"/>
</mask>
<g mask="url(#mask0_2406_6901)">
<rect width="2.86704" height="1.19356" transform="matrix(0.136842 0.990593 0.990593 -0.136842 432.217 438.043)" fill="white"/>
<rect width="2.82148" height="2.23841" transform="matrix(0.136842 0.990593 0.990593 -0.136842 258.422 425.016)" fill="white"/>
<rect x="256.884" y="465.684" width="2.90346" height="0.919819" transform="rotate(129.363 256.884 465.684)" fill="white"/>
<rect x="124.718" y="309.941" width="2.95913" height="1.16633" transform="rotate(129.319 124.718 309.941)" fill="white"/>
<rect x="124.559" y="306.742" width="2.99997" height="4" transform="rotate(15 124.559 306.742)" fill="white"/>
<rect x="428.832" y="441.07" width="2" height="3" transform="rotate(15 428.832 441.07)" fill="white"/>
</g>
<mask id="mask1_2406_6901" style="mask-type:alpha" maskUnits="userSpaceOnUse" x="131" y="240" width="330" height="155">
<path fill-rule="evenodd" clip-rule="evenodd" d="M145.754 241.489C144.339 240.331 142.193 241.023 141.718 242.791L132.004 278.955C131.748 279.908 132.074 280.922 132.837 281.546L232.378 363.065L270.618 394.379C271.16 394.823 271.863 395.02 272.559 394.924L321.485 388.137L448.593 370.498C449.598 370.359 450.424 369.631 450.687 368.652L460.304 332.842C460.77 331.105 459.315 329.458 457.53 329.706L283.026 353.908L145.754 241.489ZM144.152 243.436L281.424 355.854C281.966 356.298 282.67 356.496 283.366 356.399L457.87 332.197L448.253 368.007L272.219 392.432L134.438 279.6L144.152 243.436Z" fill="#EFF2FD"/>
</mask>
<g mask="url(#mask1_2406_6901)">
<rect width="2.70702" height="24.1097" transform="matrix(0.136842 0.990593 0.990593 -0.136842 244.338 396.148)" fill="white"/>
<rect width="2.80995" height="2.59367" transform="matrix(0.136842 0.990593 0.990593 -0.136842 277.177 354.461)" fill="white"/>
<rect width="3.04839" height="2.53565" transform="matrix(0.136842 0.990593 0.990593 -0.136842 450.66 367.465)" fill="white"/>
<rect x="143.469" y="239.336" width="2.70811" height="1.95144" transform="rotate(129.363 143.469 239.336)" fill="white"/>
<rect x="277.143" y="396.434" width="2.83444" height="2.50595" transform="rotate(129.363 277.143 396.434)" fill="white"/>
<rect x="144.095" y="239.742" width="2.91528" height="12.5883" transform="rotate(129.363 144.095 239.742)" fill="white"/>
<rect x="130.063" y="282.336" width="4" height="2" transform="rotate(15 130.063 282.336)" fill="white"/>
<rect x="461.57" y="316.293" width="2.99999" height="13" transform="rotate(15 461.57 316.293)" fill="white"/>
</g>
<mask id="mask2_2406_6901" style="mask-type:alpha" maskUnits="userSpaceOnUse" x="150" y="143" width="331" height="181">
<path fill-rule="evenodd" clip-rule="evenodd" d="M334.538 146.461L334.54 146.46C336.019 146.251 337.585 146.374 339.081 146.798L339.088 146.8L339.124 146.809C340.402 147.175 341.557 147.768 342.483 148.538L342.488 148.542L476.259 257.221L476.261 257.224L476.277 257.242L476.295 257.262C476.3 257.269 476.306 257.275 476.313 257.283C476.325 257.296 476.338 257.31 476.352 257.326C476.362 257.335 476.371 257.345 476.381 257.356C476.651 257.631 476.894 257.915 477.111 258.206L302.08 282.879L271.769 258.254C271.732 258.224 271.693 258.196 271.653 258.17L233.345 227.069L177.572 182.197L164.084 171.239C164.715 170.979 165.406 170.793 166.162 170.684L334.538 146.461ZM161.241 171.264C161.236 171.195 161.234 171.125 161.236 171.055C161.257 170.283 161.7 169.629 162.365 169.267L162.381 169.258L162.397 169.25C163.439 168.719 164.58 168.37 165.808 168.194L334.187 143.97L334.19 143.97C336.04 143.708 337.959 143.864 339.767 144.375L339.806 144.386L339.814 144.388C341.391 144.838 342.868 145.582 344.092 146.598L344.098 146.603L477.831 255.251C477.971 255.356 478.069 255.463 478.118 255.518C478.129 255.53 478.142 255.544 478.153 255.557L478.173 255.58L478.181 255.59L478.189 255.599C478.753 256.175 479.231 256.789 479.628 257.424L479.634 257.434L479.64 257.444C479.987 258.023 480.064 258.716 479.805 259.34C480.159 259.909 480.291 260.623 480.084 261.35L469.98 296.822C469.707 297.782 468.891 298.492 467.901 298.631L340.287 316.6L291.337 323.509C290.833 323.58 290.321 323.455 289.908 323.159L289.877 323.137L220.914 267.146L182.498 235.967L151.777 211.03C151.004 210.402 150.676 209.377 150.941 208.415L161.078 171.645C161.116 171.506 161.172 171.379 161.241 171.264ZM176.071 184.225L163.099 173.789L153.37 209.076L184.091 234.013L222.506 265.192L291.226 320.985L339.941 314.109L467.557 296.14L477.644 260.724L351.088 278.936L302.213 285.963C301.713 286.035 301.207 285.892 300.82 285.569L261.992 254.03L176.071 184.225ZM476.238 257.197C476.233 257.192 476.232 257.191 476.235 257.194L476.238 257.197ZM329.966 182.451L329.965 182.45C329.347 181.947 328.507 181.718 327.717 181.838L327.709 181.84L250.535 192.952L250.527 192.953C249.672 193.081 248.888 193.621 248.641 194.523C248.396 195.42 248.788 196.278 249.443 196.827L249.451 196.834L311.129 246.936L311.137 246.942L311.224 247.012C311.697 247.39 312.316 247.389 312.778 247.107L390.017 235.996L390.025 235.995C390.879 235.866 391.664 235.326 391.911 234.424C392.156 233.528 391.763 232.669 391.109 232.12L391.101 232.113L329.966 182.451ZM328.091 184.326C328.177 184.312 328.302 184.346 328.369 184.401L328.371 184.403L388.945 233.609L312.294 244.635L251.607 195.338L328.077 184.328L328.084 184.327L328.091 184.326Z" fill="#EFF2FD"/>
</mask>
<g mask="url(#mask2_2406_6901)">
<rect width="3.1659" height="0.434985" transform="matrix(0.136842 0.990593 0.990593 -0.136842 470.359 295.617)" fill="white"/>
<rect x="164.158" y="158.953" width="2.99998" height="5" transform="rotate(15 164.158 158.953)" fill="white"/>
<rect x="465.654" y="299.785" width="4" height="6" transform="rotate(15 465.654 299.785)" fill="white"/>
<rect x="295.952" y="324.578" width="2.79388" height="2.31816" transform="rotate(129.048 295.952 324.578)" fill="white"/>
<rect x="393.762" y="234.062" width="2.877" height="0.748366" transform="rotate(129.048 393.762 234.062)" fill="white"/>
<rect x="249.332" y="193.383" width="2.87427" height="0.829984" transform="rotate(129.048 249.332 193.383)" fill="white"/>
<rect x="162.153" y="169.059" width="3.37224" height="1.81259" transform="rotate(129.048 162.153 169.059)" fill="white"/>
<rect width="3.40708" height="5.14726" transform="matrix(0.139939 0.99016 0.99016 -0.139939 292.917 284.055)" fill="white"/>
<rect width="3.27829" height="20.1613" transform="matrix(0.139939 0.99016 0.99016 -0.139939 267.122 324)" fill="white"/>
<rect width="2.96029" height="8.36147" transform="matrix(0.139939 0.99016 0.99016 -0.139939 342.564 142.766)" fill="white"/>
<rect width="2.74925" height="0.487459" transform="matrix(0.139939 0.99016 0.99016 -0.139939 331.532 181.312)" fill="white"/>
<rect width="3.62411" height="0.880948" transform="matrix(0.139939 0.99016 0.99016 -0.139939 307.304 244.738)" fill="white"/>
</g>
</g>
<defs>
<radialGradient id="paint0_radial_2406_6901" cx="0" cy="0" r="1" gradientUnits="userSpaceOnUse" gradientTransform="translate(306 303) rotate(90) scale(285 304.231)">
<stop stop-color="#020D2C" stop-opacity="0"/>
<stop offset="1" stop-color="#020D2C"/>
</radialGradient>
<clipPath id="clip0_2406_6901">
<rect width="588" height="610" fill="white"/>
</clipPath>
</defs>
</svg>
